<?xml version="1.0" encoding="UTF-8" standalone="no"?>
<!-- Created with Inkscape (http://www.inkscape.org/) -->

<svg
   xmlns:dc="http://purl.org/dc/elements/1.1/"
   xmlns:cc="http://creativecommons.org/ns#"
   xmlns:rdf="http://www.w3.org/1999/02/22-rdf-syntax-ns#"
   xmlns:svg="http://www.w3.org/2000/svg"
   xmlns="http://www.w3.org/2000/svg"
   xmlns:xlink="http://www.w3.org/1999/xlink"
   xmlns:sodipodi="http://sodipodi.sourceforge.net/DTD/sodipodi-0.dtd"
   xmlns:inkscape="http://www.inkscape.org/namespaces/inkscape"
   width="800"
   height="256"
   id="svg5446"
   version="1.1"
   inkscape:version="0.48.2 r9819"
   sodipodi:docname="logo.svg"
   inkscape:export-filename="C:\Users\Sten\Documents\Visual Studio 2010\Projects\Tetatt\TetattContent\logo.png"
   inkscape:export-xdpi="90"
   inkscape:export-ydpi="90">
  <defs
     id="defs5448">
    <linearGradient
       inkscape:collect="always"
       xlink:href="#linearGradient6458-9"
       id="linearGradient9231"
       gradientUnits="userSpaceOnUse"
       gradientTransform="matrix(0.37062257,0,0,0.37062261,-1.3896517,924.06853)"
       x1="46.920059"
       y1="6.1885772"
       x2="46.920059"
       y2="40.196201" />
    <linearGradient
       id="linearGradient6458-9"
       inkscape:collect="always">
      <stop
         id="stop6460-4"
         offset="0"
         style="stop-color:white;stop-opacity:0.76506025" />
      <stop
         id="stop6462-5"
         offset="1"
         style="stop-color:white;stop-opacity:0" />
    </linearGradient>
    <linearGradient
       inkscape:collect="always"
       xlink:href="#linearGradient6458-8"
       id="linearGradient4613"
       gradientUnits="userSpaceOnUse"
       gradientTransform="matrix(0.37062256,0,0,0.37062261,126.61034,668.0686)"
       x1="46.920059"
       y1="6.1885772"
       x2="46.920059"
       y2="40.196201" />
    <linearGradient
       id="linearGradient6458-8"
       inkscape:collect="always">
      <stop
         id="stop6460-1"
         offset="0"
         style="stop-color:white;stop-opacity:0.76506025" />
      <stop
         id="stop6462-68"
         offset="1"
         style="stop-color:white;stop-opacity:0" />
    </linearGradient>
  </defs>
  <sodipodi:namedview
     id="base"
     pagecolor="#000000"
     bordercolor="#666666"
     borderopacity="1.0"
     inkscape:pageopacity="0"
     inkscape:pageshadow="2"
     inkscape:zoom="1"
     inkscape:cx="368.08149"
     inkscape:cy="28.700823"
     inkscape:document-units="px"
     inkscape:current-layer="layer1"
     showgrid="false"
     inkscape:window-width="1373"
     inkscape:window-height="781"
     inkscape:window-x="5"
     inkscape:window-y="175"
     inkscape:window-maximized="0" />
  <metadata
     id="metadata5451">
    <rdf:RDF>
      <cc:Work
         rdf:about="">
        <dc:format>image/svg+xml</dc:format>
        <dc:type
           rdf:resource="http://purl.org/dc/dcmitype/StillImage" />
        <dc:title></dc:title>
      </cc:Work>
    </rdf:RDF>
  </metadata>
  <g
     inkscape:label="Layer 1"
     inkscape:groupmode="layer"
     id="layer1"
     transform="translate(0,-796.36218)">
    <g
       transform="matrix(5.6666666,0,0,5.6666666,-730.99999,-2910.6901)"
       id="g5201"
       inkscape:export-filename="C:\Users\Sten\Documents\Visual Studio 2010\Projects\Tetatt\TetattContent\logo.png"
       inkscape:export-xdpi="90"
       inkscape:export-ydpi="90">
      <rect
         inkscape:export-ydpi="9.4799995"
         inkscape:export-xdpi="9.4799995"
         inkscape:export-filename="C:\Projects\tetattds\images\block7.png"
         ry="3.160886"
         rx="3.1608858"
         y="669.36218"
         x="129"
         height="30"
         width="30"
         id="rect7411"
         style="fill:#000000;fill-opacity:1;fill-rule:evenodd;stroke:none" />
      <rect
         inkscape:export-ydpi="9.4799995"
         inkscape:export-xdpi="9.4799995"
         inkscape:export-filename="C:\Projects\tetattds\images\block7.png"
         style="fill:url(#linearGradient4613);fill-opacity:1;fill-rule:evenodd;stroke:none"
         id="rect8437"
         width="28"
         height="28"
         x="130"
         y="670.36218"
         rx="2.6943545"
         ry="2.694355" />
      <path
         sodipodi:nodetypes="ccccccccccccsccccccccccccsssss"
         inkscape:connector-curvature="0"
         id="path3065"
         d="m 149.51143,674.86896 c -0.0535,0.96575 0.0682,1.93503 -0.0209,2.8997 0.0516,1.12421 -0.68573,1.8149 -1.92322,2.14649 -1.24311,0.37396 -3.25653,0.52412 -4.53263,0.71005 0.53075,-0.60585 0.82826,-0.9597 1.11791,-1.85475 0.42569,-1.58872 0.50108,-2.17802 0.23667,-3.44451 -0.33199,0.9857 -0.3731,1.01438 -0.79638,1.66271 -0.65036,0.80636 -1.06884,1.63468 -2.06952,2.11333 -0.8934,0.4618 -1.7002,1.05161 -2.91756,1.66505 -0.88978,0.48742 -1.83848,0.99434 -2.94245,1.87515 -1.03189,0.93379 -2.00113,2.35203 -2.27897,3.65887 -0.0873,0.54745 -0.20285,1.14799 -0.20542,1.63294 0,3.26963 2.65183,5.92146 5.92146,5.92146 0.59839,0 1.5831,-0.15749 2.43379,-0.49271 1.15439,-0.44019 1.45911,-0.74682 2.26111,-1.34416 1.0811,-0.82306 1.6077,-1.68041 2.66302,-2.57372 1.53748,-0.98725 3.19804,-1.19714 4.82291,-1.90832 1.12542,-0.30156 1.66869,-0.92718 2.40699,-1.9113 0.67513,-1.00636 0.89573,-1.88116 1.13279,-2.88631 -0.26111,0.83624 -0.80622,1.56488 -1.46176,2.14352 -0.91831,0.63567 -2.1623,0.4452 -3.15871,0.11015 -1.10907,-0.29718 -1.88452,-0.20926 -2.8476,-0.0834 0.90812,-0.83775 1.05674,-0.98231 2.11821,-2.04378 0.87028,-0.94888 1.10599,-2.43206 1.10599,-4.32276 -0.0647,-1.30158 -0.75058,-2.43599 -1.0658,-3.67374 z m -10.41094,8.63062 c 2.44942,0 4.4344,1.98498 4.4344,4.43441 0,2.44942 -1.98498,4.43589 -4.4344,4.43589 -2.44943,0 -4.43589,-1.98647 -4.43589,-4.43589 0,-2.44943 1.98646,-4.43441 4.43589,-4.43441 z"
         style="fill:#ffffff;fill-opacity:1;stroke:none" />
    </g>
    <text
       xml:space="preserve"
       style="font-size:47.73157883px;font-style:normal;font-variant:normal;font-weight:normal;font-stretch:normal;text-align:center;line-height:125%;letter-spacing:0px;word-spacing:0px;text-anchor:middle;fill:#ffffff;fill-opacity:1;stroke:#000000;stroke-width:2.84011388;stroke-miterlimit:4;stroke-opacity:1;stroke-dasharray:none;font-family:Gunship;-inkscape-font-specification:Gunship"
       x="185.66737"
       y="987.74994"
       id="text5483"
       sodipodi:linespacing="125%"
       transform="scale(0.99823541,1.0017677)"
       inkscape:export-filename="C:\Users\Sten\Documents\Visual Studio 2010\Projects\Tetatt\TetattContent\logo.png"
       inkscape:export-xdpi="90"
       inkscape:export-ydpi="90"><tspan
         sodipodi:role="line"
         x="185.66737"
         y="987.74994"
         style="font-size:100px;font-style:normal;font-variant:normal;font-weight:normal;font-stretch:normal;text-align:start;text-anchor:start;stroke-width:2.84011388;stroke-miterlimit:4;stroke-dasharray:none;font-family:Motorwerk;-inkscape-font-specification:Motorwerk"
         id="tspan3019">Stack o' Tiles</tspan></text>
    <flowRoot
       xml:space="preserve"
       id="flowRoot6592"
       style="font-size:40px;font-style:normal;font-weight:normal;line-height:125%;letter-spacing:0px;word-spacing:0px;fill:#000000;fill-opacity:1;stroke:none;font-family:Sans"
       transform="translate(142.74793,796.35986)"><flowRegion
         id="flowRegion6594"><rect
           id="rect6596"
           width="387"
           height="89"
           x="26"
           y="144" /></flowRegion><flowPara
         id="flowPara6598" /></flowRoot>    <text
       xml:space="preserve"
       style="font-size:40px;font-style:normal;font-weight:normal;line-height:125%;letter-spacing:0px;word-spacing:0px;fill:#000000;fill-opacity:1;stroke:none;font-family:Sans"
       x="358.86969"
       y="1033.3622"
       id="text3789"
       sodipodi:linespacing="125%"
       inkscape:export-xdpi="90"
       inkscape:export-ydpi="90"
       inkscape:export-filename="C:\Users\Sten\Documents\Visual Studio 2010\Projects\Tetatt\TetattContent\logo.png"><tspan
         sodipodi:role="line"
         id="tspan3791"
         x="358.86969"
         y="1033.3622"
         style="font-size:32px;font-style:normal;font-variant:normal;font-weight:bold;font-stretch:normal;fill:#ffffff;fill-opacity:1;stroke:#000000;stroke-opacity:1;font-family:Moire;-inkscape-font-specification:Moire Bold">- TOTALLY NOT A CLONE</tspan></text>
  </g>
</svg>
