<?xml version="1.0" encoding="UTF-8" standalone="no"?>
<!-- Created with Inkscape (http://www.inkscape.org/) -->

<svg
   xmlns:dc="http://purl.org/dc/elements/1.1/"
   xmlns:cc="http://creativecommons.org/ns#"
   xmlns:rdf="http://www.w3.org/1999/02/22-rdf-syntax-ns#"
   xmlns:svg="http://www.w3.org/2000/svg"
   xmlns="http://www.w3.org/2000/svg"
   xmlns:xlink="http://www.w3.org/1999/xlink"
   xmlns:sodipodi="http://sodipodi.sourceforge.net/DTD/sodipodi-0.dtd"
   xmlns:inkscape="http://www.inkscape.org/namespaces/inkscape"
   width="72"
   height="42"
   id="svg4745"
   version="1.1"
   inkscape:version="0.48.0 r9654"
   sodipodi:docname="marker.svg"
   inkscape:export-filename="C:\Users\Sten\Documents\Visual Studio 2010\Projects\Tetatt\Tetatt\TetattContent\marker.png"
   inkscape:export-xdpi="90"
   inkscape:export-ydpi="90">
  <defs
     id="defs4747">
    <linearGradient
       inkscape:collect="always"
       xlink:href="#linearGradient6458-21"
       id="linearGradient4880"
       gradientUnits="userSpaceOnUse"
       gradientTransform="matrix(0.37062257,0,0,0.37062261,30.610348,796.06852)"
       x1="46.920059"
       y1="6.1885772"
       x2="46.920059"
       y2="40.196201" />
    <linearGradient
       id="linearGradient6458-21"
       inkscape:collect="always">
      <stop
         id="stop6460-68"
         offset="0"
         style="stop-color:white;stop-opacity:0.76506025" />
      <stop
         id="stop6462-57"
         offset="1"
         style="stop-color:white;stop-opacity:0" />
    </linearGradient>
    <linearGradient
       inkscape:collect="always"
       xlink:href="#linearGradient6458"
       id="linearGradient9160"
       gradientUnits="userSpaceOnUse"
       gradientTransform="matrix(0.37062257,0,0,0.37062261,-1.389652,796.06853)"
       x1="46.920059"
       y1="6.1885772"
       x2="46.920059"
       y2="40.196201" />
    <linearGradient
       id="linearGradient6458"
       inkscape:collect="always">
      <stop
         id="stop6460"
         offset="0"
         style="stop-color:white;stop-opacity:0.76506025" />
      <stop
         id="stop6462"
         offset="1"
         style="stop-color:white;stop-opacity:0" />
    </linearGradient>
    <linearGradient
       inkscape:collect="always"
       xlink:href="#linearGradient6458-7-4"
       id="linearGradient4890"
       gradientUnits="userSpaceOnUse"
       gradientTransform="matrix(0.37062257,0,0,0.37062261,30.610348,828.06852)"
       x1="46.920059"
       y1="6.1885772"
       x2="46.920059"
       y2="40.196201" />
    <linearGradient
       id="linearGradient6458-7-4"
       inkscape:collect="always">
      <stop
         id="stop6460-6-2"
         offset="0"
         style="stop-color:white;stop-opacity:0.76506025" />
      <stop
         id="stop6462-4-3"
         offset="1"
         style="stop-color:white;stop-opacity:0" />
    </linearGradient>
    <linearGradient
       inkscape:collect="always"
       xlink:href="#linearGradient6458-7"
       id="linearGradient9170"
       gradientUnits="userSpaceOnUse"
       gradientTransform="matrix(0.37062257,0,0,0.37062261,-1.389652,828.06853)"
       x1="46.920059"
       y1="6.1885772"
       x2="46.920059"
       y2="40.196201" />
    <linearGradient
       id="linearGradient6458-7"
       inkscape:collect="always">
      <stop
         id="stop6460-6"
         offset="0"
         style="stop-color:white;stop-opacity:0.76506025" />
      <stop
         id="stop6462-4"
         offset="1"
         style="stop-color:white;stop-opacity:0" />
    </linearGradient>
    <linearGradient
       inkscape:collect="always"
       xlink:href="#linearGradient6458-21-7"
       id="linearGradient4880-1"
       gradientUnits="userSpaceOnUse"
       gradientTransform="matrix(0.37062257,0,0,0.37062261,30.610348,796.06852)"
       x1="46.920059"
       y1="6.1885772"
       x2="46.920059"
       y2="40.196201" />
    <linearGradient
       id="linearGradient6458-21-7"
       inkscape:collect="always">
      <stop
         id="stop6460-68-4"
         offset="0"
         style="stop-color:white;stop-opacity:0.76506025" />
      <stop
         id="stop6462-57-0"
         offset="1"
         style="stop-color:white;stop-opacity:0" />
    </linearGradient>
    <linearGradient
       inkscape:collect="always"
       xlink:href="#linearGradient6458-4"
       id="linearGradient9160-9"
       gradientUnits="userSpaceOnUse"
       gradientTransform="matrix(0.37062257,0,0,0.37062261,-1.389652,796.06853)"
       x1="46.920059"
       y1="6.1885772"
       x2="46.920059"
       y2="40.196201" />
    <linearGradient
       id="linearGradient6458-4"
       inkscape:collect="always">
      <stop
         id="stop6460-8"
         offset="0"
         style="stop-color:white;stop-opacity:0.76506025" />
      <stop
         id="stop6462-8"
         offset="1"
         style="stop-color:white;stop-opacity:0" />
    </linearGradient>
  </defs>
  <sodipodi:namedview
     id="base"
     pagecolor="#ffffff"
     bordercolor="#666666"
     borderopacity="1.0"
     inkscape:pageopacity="0.0"
     inkscape:pageshadow="2"
     inkscape:zoom="1"
     inkscape:cx="43.789394"
     inkscape:cy="18.151157"
     inkscape:document-units="px"
     inkscape:current-layer="layer1"
     showgrid="false"
     inkscape:window-width="897"
     inkscape:window-height="689"
     inkscape:window-x="100"
     inkscape:window-y="100"
     inkscape:window-maximized="0" />
  <metadata
     id="metadata4750">
    <rdf:RDF>
      <cc:Work
         rdf:about="">
        <dc:format>image/svg+xml</dc:format>
        <dc:type
           rdf:resource="http://purl.org/dc/dcmitype/StillImage" />
        <dc:title />
      </cc:Work>
    </rdf:RDF>
  </metadata>
  <g
     inkscape:label="Layer 1"
     inkscape:groupmode="layer"
     id="layer1"
     transform="translate(0,-1010.3622)">
    <path
       style="fill:#ffffff;fill-opacity:1;stroke:#000000;stroke-width:2.0049696;stroke-miterlimit:4;stroke-opacity:1;stroke-dasharray:none"
       d="m 3.1163273,1014.2172 c -2.85253947,2.8525 -2.85253947,9.2498 0,12.1023 0.9394856,0.9395 3.0464141,0.9395 3.9858997,0 1.901693,-1.9017 -1.901693,-6.1665 0,-8.0682 1.878971,-1.879 6.092828,1.879 7.971799,0 0.950846,-0.9508 0.950846,-3.0833 0,-4.0341 -2.818457,-2.8185 -9.1392421,-2.8185 -11.9576987,0 z"
       id="rect4753-1"
       inkscape:connector-curvature="0"
       sodipodi:nodetypes="sssssss" />
    <path
       inkscape:connector-curvature="0"
       style="fill:#ffffff;fill-opacity:1;stroke:#000000;stroke-width:2.0049696;stroke-miterlimit:4;stroke-opacity:1;stroke-dasharray:none"
       d="m 3.1163273,1048.5072 c 2.8184566,2.8185 9.1392417,2.8185 11.9576987,0 0.950846,-0.9508 0.950846,-3.0833 0,-4.0341 -1.878971,-1.879 -6.092828,1.879 -7.971799,0 -1.9017165,-1.9017 1.9017165,-6.1666 0,-8.0683 -0.9394856,-0.9395 -3.0464141,-0.9395 -3.9858997,0 -2.85256304,2.8526 -2.85256304,9.2498 0,12.1024 z"
       id="rect4753-1-7"
       sodipodi:nodetypes="sssssss" />
    <path
       inkscape:connector-curvature="0"
       style="fill:#ffffff;fill-opacity:1;stroke:#000000;stroke-width:2.0049696;stroke-miterlimit:4;stroke-opacity:1;stroke-dasharray:none"
       d="m 68.883673,1048.5072 c 2.852563,-2.8526 2.852563,-9.2498 0,-12.1024 -0.939486,-0.9395 -3.046414,-0.9395 -3.9859,0 -1.901717,1.9017 1.901717,6.1666 0,8.0683 -1.878971,1.879 -6.092828,-1.879 -7.971799,0 -0.950846,0.9508 -0.950846,3.0833 0,4.0341 2.818457,2.8185 9.139242,2.8185 11.957699,0 z"
       id="rect4753-1-4"
       sodipodi:nodetypes="sssssss" />
    <path
       inkscape:connector-curvature="0"
       style="fill:#ffffff;fill-opacity:1;stroke:#000000;stroke-width:2.0049696;stroke-miterlimit:4;stroke-opacity:1;stroke-dasharray:none"
       d="m 68.883673,1014.2172 c -2.818457,-2.8185 -9.139242,-2.8185 -11.957699,0 -0.950846,0.9508 -0.950846,3.0833 0,4.0341 1.878971,1.879 6.092828,-1.879 7.971799,0 1.901693,1.9017 -1.901693,6.1665 0,8.0682 0.939486,0.9395 3.046414,0.9395 3.9859,0 2.852539,-2.8525 2.852539,-9.2498 0,-12.1023 z"
       id="rect4753-1-7-0"
       sodipodi:nodetypes="sssssss" />
    <path
       inkscape:connector-curvature="0"
       style="fill:#ffffff;fill-opacity:1;stroke:#000000;stroke-width:2.0049696;stroke-miterlimit:4;stroke-opacity:1;stroke-dasharray:none"
       d="m 43.971799,1014.2172 c -3.757942,-3.7579 -12.185656,-3.7579 -15.943598,0 -0.950846,0.9508 -0.950846,3.0833 0,4.0341 1.409228,1.4092 4.569621,-1.4092 5.978849,0 1.188552,1.1886 -1.188552,3.854 0,5.0426 0.939486,0.9395 3.046414,0.9395 3.9859,0 1.188552,-1.1886 -1.188552,-3.854 0,-5.0426 1.409228,-1.4092 4.569621,1.4092 5.978849,0 0.950846,-0.9508 0.950846,-3.0833 0,-4.0341 z"
       id="rect4753-1-7-0-9"
       sodipodi:nodetypes="sssssssss" />
    <path
       inkscape:connector-curvature="0"
       style="fill:#ffffff;fill-opacity:1;stroke:#000000;stroke-width:2.0049696;stroke-miterlimit:4;stroke-opacity:1;stroke-dasharray:none"
       d="m 28.028201,1048.5072 c 3.757942,3.7579 12.185656,3.7579 15.943598,0 0.950846,-0.9508 0.950846,-3.0833 0,-4.0341 -1.409228,-1.4092 -4.569621,1.4092 -5.978849,0 -1.188576,-1.1886 1.188576,-3.8541 0,-5.0427 -0.939486,-0.9395 -3.046414,-0.9395 -3.9859,0 -1.188576,1.1886 1.188576,3.8541 0,5.0427 -1.409228,1.4092 -4.569621,-1.4092 -5.978849,0 -0.950846,0.9508 -0.950846,3.0833 0,4.0341 z"
       id="rect4753-1-7-0-9-4"
       sodipodi:nodetypes="sssssssss" />
  </g>
</svg>
